<mxfile host="app.diagrams.net" modified="2023-06-20T21:24:02.032Z" agent="Mozilla/5.0 (Macintosh; Intel Mac OS X 10_15_7) AppleWebKit/537.36 (KHTML, like Gecko) Chrome/113.0.0.0 Safari/537.36" version="21.5.0" etag="d8sKYdNnwxMe6SyPPNwL" type="github">
  <diagram name="Page-1" id="rSBLoOxBF4UVFIC16jf-">
    <mxGraphModel>
      <root>
        <mxCell id="0" />
        <mxCell id="1" parent="0" />
      </root>
    </mxGraphModel>
  </diagram>
</mxfile>
